<?xml version="1.0" encoding="UTF-8" standalone="no"?>
<!-- Created with Inkscape (http://www.inkscape.org/) -->

<svg
   width="210mm"
   height="297mm"
   viewBox="0 0 210 297"
   version="1.1"
   id="svg1"
   xml:space="preserve"
   sodipodi:docname="3-forward.svg"
   inkscape:version="1.3 (0e150ed, 2023-07-21)"
   xmlns:inkscape="http://www.inkscape.org/namespaces/inkscape"
   xmlns:sodipodi="http://sodipodi.sourceforge.net/DTD/sodipodi-0.dtd"
   xmlns="http://www.w3.org/2000/svg"
   xmlns:svg="http://www.w3.org/2000/svg"><sodipodi:namedview
     id="namedview1"
     pagecolor="#ffffff"
     bordercolor="#666666"
     borderopacity="1.0"
     inkscape:showpageshadow="2"
     inkscape:pageopacity="0.0"
     inkscape:pagecheckerboard="0"
     inkscape:deskcolor="#d1d1d1"
     inkscape:document-units="mm"
     inkscape:zoom="0.90916158"
     inkscape:cx="371.22114"
     inkscape:cy="567.55588"
     inkscape:window-width="1640"
     inkscape:window-height="945"
     inkscape:window-x="0"
     inkscape:window-y="25"
     inkscape:window-maximized="0"
     inkscape:current-layer="layer1" /><defs
     id="defs1" /><g
     inkscape:label="Layer 1"
     inkscape:groupmode="layer"
     id="layer1"><g
       id="g11"
       transform="matrix(0.35166242,0,0,0.35166242,0.34526703,0.48528957)">&#10;	<line
   class="st0"
   x1="297.70001"
   y1="310.29999"
   x2="289.39999"
   y2="335.60001"
   id="line9" />&#10;	<line
   class="st0"
   x1="305.89999"
   y1="335.60001"
   x2="289.39999"
   y2="335.60001"
   id="line10" />&#10;	<line
   class="st0"
   x1="297.70001"
   y1="310.29999"
   x2="305.89999"
   y2="335.60001"
   id="line11" />&#10;</g><g
       inkscape:label="Hershey Text"
       style="fill:none;stroke:#000000;stroke-linecap:round;stroke-linejoin:round"
       id="g20"
       transform="translate(2.9101904,34.922285)"><g
         transform="translate(90.9198,68.4339)"
         id="g19"><path
           d="M 132,18.9 V 346 H 413 132 v 297 h 322"
           style="stroke-width:0.648in"
           transform="scale(0.00421995,-0.00421995)"
           id="path10" /><path
           d="m 334,22.1 82,12.5 82,53.6 56,84.8 29,111 v 103 l -16,85 -31,70 -51,66 -69,41 -70,13 -59,-10 -67,-25 -62,-54 -48,-91 -15.5,-72 -3.1,-108 12.6,-82 31,-75 45,-59.9 50,-41 54,-18.9 50,-3.1"
           style="stroke-width:0.648in"
           transform="matrix(0.00421995,0,0,-0.00421995,2.11419,0)"
           id="path11" /><path
           d="M 129,18.9 V 649 h 211 l 51,-16 56,-28 41,-63 v -54 l -9,-60 -38,-53 -47,-29 -76,-18 H 132 312 L 495,18.9"
           style="stroke-width:0.648in"
           transform="matrix(0.00421995,0,0,-0.00421995,4.9711,0)"
           id="path12" /><path
           d="M 66.1,655 214,18.9 227,22.1 391,652 h 12 L 570,18.9 h 13 L 724,655"
           style="stroke-width:0.648in"
           transform="matrix(0.00421995,0,0,-0.00421995,7.41867,0)"
           id="path13" /><path
           d="M 41,15.8 277,662 416,255 H 132 416 L 501,15.8"
           style="stroke-width:0.648in"
           transform="matrix(0.00421995,0,0,-0.00421995,10.7567,0)"
           id="path14" /><path
           d="M 129,18.9 V 649 h 211 l 51,-16 56,-28 41,-63 v -54 l -9,-60 -38,-53 -47,-29 -76,-18 H 132 312 L 495,18.9"
           style="stroke-width:0.648in"
           transform="matrix(0.00421995,0,0,-0.00421995,13.0692,0)"
           id="path15" /><path
           d="M 132,31.5 V 646 h 177 l 72,-19 54,-29 37,-37 45,-73 15,-82 v -50 l -3,-66 -9,-76 -25,-53 -45,-66.5 -69,-40.9 -66,-19 -50,-3.1 H 135"
           style="stroke-width:0.648in"
           transform="matrix(0.00421995,0,0,-0.00421995,15.5168,0)"
           id="path16" /><path
           d="M 59.9,97.6 101,63 l 44,-25.2 50,-18.9 48,-3.1 72,18.8 50,41 41,59.4 16,70 -9,82 -35,63 -72,41 -73,6 -53,-13 -54,-28 -6,9 19,265 h 258"
           style="stroke-width:0.648in"
           transform="matrix(0.00421995,0,0,-0.00421995,19.7578,0)"
           id="path17" /><path
           d="m 246,18.9 60,12.6 63,63 28,66.5 13,75 6,104 -6,98 -23,94 -31,60 -50,38 -45,16 -37,-3 L 164,608 123,551 94.5,460 85,365 81.9,271 94.5,183 126,94.5 164,53.6 202,22.1 246,18.9"
           style="stroke-width:0.648in"
           transform="matrix(0.00421995,0,0,-0.00421995,21.872,0)"
           id="path18" /></g></g></g><style
     type="text/css"
     id="style1">&#10;	.st0{fill:none;stroke:#000000;stroke-miterlimit:10;}&#10;	.st1{font-family:'MyriadPro-Regular';}&#10;	.st2{font-size:12px;}&#10;</style></svg>
