<?xml version="1.0" encoding="UTF-8" standalone="no"?>
<!-- Created with Inkscape (http://www.inkscape.org/) -->

<svg
   width="210mm"
   height="297mm"
   viewBox="0 0 210 297"
   version="1.1"
   id="svg1"
   xml:space="preserve"
   sodipodi:docname="back.svg"
   inkscape:version="1.3 (0e150ed, 2023-07-21)"
   xmlns:inkscape="http://www.inkscape.org/namespaces/inkscape"
   xmlns:sodipodi="http://sodipodi.sourceforge.net/DTD/sodipodi-0.dtd"
   xmlns="http://www.w3.org/2000/svg"
   xmlns:svg="http://www.w3.org/2000/svg"><sodipodi:namedview
     id="namedview1"
     pagecolor="#ffffff"
     bordercolor="#666666"
     borderopacity="1.0"
     inkscape:showpageshadow="2"
     inkscape:pageopacity="0.0"
     inkscape:pagecheckerboard="0"
     inkscape:deskcolor="#d1d1d1"
     inkscape:document-units="mm"
     inkscape:zoom="0.90916158"
     inkscape:cx="371.22114"
     inkscape:cy="567.55588"
     inkscape:window-width="1640"
     inkscape:window-height="945"
     inkscape:window-x="0"
     inkscape:window-y="25"
     inkscape:window-maximized="0"
     inkscape:current-layer="layer1" /><defs
     id="defs1" /><g
     inkscape:label="Layer 1"
     inkscape:groupmode="layer"
     id="layer1"><g
       id="g14"
       transform="matrix(0.35166242,0,0,0.35166242,0.34526703,0.48528957)">&#10;	<line
   class="st0"
   x1="297.70001"
   y1="509.10001"
   x2="289.39999"
   y2="534.29999"
   id="line12" />&#10;	<line
   class="st0"
   x1="305.89999"
   y1="534.29999"
   x2="289.39999"
   y2="534.29999"
   id="line13" />&#10;	<line
   class="st0"
   x1="297.70001"
   y1="509.10001"
   x2="305.89999"
   y2="534.29999"
   id="line14" />&#10;</g><g
       inkscape:label="Hershey Text"
       style="fill:none;stroke:#000000;stroke-linecap:round;stroke-linejoin:round"
       id="g47"
       transform="translate(-21.535409,-21.535409)"><g
         transform="translate(117.381,220.722)"
         id="g46"><path
           d="M 129,28.4 V 646 h 183 l 53,-3 54,-22 44,-41 13,-48 V 476 L 454,425 406,391 365,372 309,362 H 135 312 l 53,-9 63,-16 51,-35 28,-31 10,-44 V 164 L 491,104 447,66.1 369,34.6 312,28.4 H 135"
           style="stroke-width:0.648in"
           transform="scale(0.00421995,-0.00421995)"
           id="path40" /><path
           d="M 41,15.8 277,662 416,255 H 132 416 L 501,15.8"
           style="stroke-width:0.648in"
           transform="matrix(0.00421995,0,0,-0.00421995,2.54041,0)"
           id="path41" /><path
           d="m 520,97.6 -66,-50.4 -89,-31.4 -88,12.6 -82,44 -63,75.6 -31,79 -9.6,119 9.6,111 41,91 63,69 72,35 82,6 73,-15 50,-32 16,-19"
           style="stroke-width:0.648in"
           transform="matrix(0.00421995,0,0,-0.00421995,4.85294,0)"
           id="path42" /><path
           d="M 132,18.9 V 655 M 491,649 142,255 M 293,425 529,18.9"
           style="stroke-width:0.648in"
           transform="matrix(0.00421995,0,0,-0.00421995,7.33849,0)"
           id="path43" /><path
           d="m 265,598 -104,-3 107,41 V 31.5 H 110 422"
           style="stroke-width:0.648in"
           transform="matrix(0.00421995,0,0,-0.00421995,11.3939,0)"
           id="path44" /><path
           d="m 246,18.9 60,12.6 63,63 28,66.5 13,75 6,104 -6,98 -23,94 -31,60 -50,38 -45,16 -37,-3 L 164,608 123,551 94.5,460 85,365 81.9,271 94.5,183 126,94.5 164,53.6 202,22.1 246,18.9"
           style="stroke-width:0.648in"
           transform="matrix(0.00421995,0,0,-0.00421995,13.5207,0)"
           id="path45" /><path
           d="m 246,18.9 60,12.6 63,63 28,66.5 13,75 6,104 -6,98 -23,94 -31,60 -50,38 -45,16 -37,-3 L 164,608 123,551 94.5,460 85,365 81.9,271 94.5,183 126,94.5 164,53.6 202,22.1 246,18.9"
           style="stroke-width:0.648in"
           transform="matrix(0.00421995,0,0,-0.00421995,15.6349,0)"
           id="path46" /></g></g></g><style
     type="text/css"
     id="style1">&#10;	.st0{fill:none;stroke:#000000;stroke-miterlimit:10;}&#10;	.st1{font-family:'MyriadPro-Regular';}&#10;	.st2{font-size:12px;}&#10;</style></svg>
