<?xml version="1.0" encoding="UTF-8" standalone="no"?>
<!-- Created with Inkscape (http://www.inkscape.org/) -->

<svg
   width="210mm"
   height="297mm"
   viewBox="0 0 210 297"
   version="1.1"
   id="svg1"
   xml:space="preserve"
   sodipodi:docname="ink1.svg"
   inkscape:version="1.3 (0e150ed, 2023-07-21)"
   xmlns:inkscape="http://www.inkscape.org/namespaces/inkscape"
   xmlns:sodipodi="http://sodipodi.sourceforge.net/DTD/sodipodi-0.dtd"
   xmlns="http://www.w3.org/2000/svg"
   xmlns:svg="http://www.w3.org/2000/svg"><sodipodi:namedview
     id="namedview1"
     pagecolor="#ffffff"
     bordercolor="#666666"
     borderopacity="1.0"
     inkscape:showpageshadow="2"
     inkscape:pageopacity="0.0"
     inkscape:pagecheckerboard="0"
     inkscape:deskcolor="#d1d1d1"
     inkscape:document-units="mm"
     inkscape:zoom="0.90916158"
     inkscape:cx="376.17076"
     inkscape:cy="567.55588"
     inkscape:window-width="1792"
     inkscape:window-height="1067"
     inkscape:window-x="0"
     inkscape:window-y="25"
     inkscape:window-maximized="1"
     inkscape:current-layer="layer1" /><defs
     id="defs1" /><g
     inkscape:label="Layer 1"
     inkscape:groupmode="layer"
     id="layer1"><g
       id="g1"
       transform="matrix(0.35166242,0,0,0.35166242,0.34526703,0.48528957)"><rect
         x="141.7"
         y="265"
         class="st0"
         width="311.79999"
         height="311.79999"
         id="rect1" /><g
         id="g3">&#10;	<line
   class="st0"
   x1="297.70001"
   y1="408.29999"
   x2="289.39999"
   y2="433.60001"
   id="line1" />&#10;	<line
   class="st0"
   x1="305.89999"
   y1="433.60001"
   x2="289.39999"
   y2="433.60001"
   id="line2" />&#10;	<line
   class="st0"
   x1="297.70001"
   y1="408.29999"
   x2="305.89999"
   y2="433.60001"
   id="line3" />&#10;</g><g
         id="g6">&#10;	<line
   class="st0"
   x1="297.70001"
   y1="397.39999"
   x2="297.70001"
   y2="379.5"
   id="line4" />&#10;	<line
   class="st0"
   x1="293.60001"
   y1="385.10001"
   x2="297.70001"
   y2="379.5"
   id="line5" />&#10;	<line
   class="st0"
   x1="301.70001"
   y1="385.10001"
   x2="297.60001"
   y2="379.5"
   id="line6" />&#10;</g><g
         id="g8">&#10;	<line
   class="st0"
   x1="295.60001"
   y1="431.29999"
   x2="300.10001"
   y2="435.79999"
   id="line7" />&#10;	<line
   class="st0"
   x1="300.10001"
   y1="431.29999"
   x2="295.60001"
   y2="435.79999"
   id="line8" />&#10;</g><g
         id="g11">&#10;	<line
   class="st0"
   x1="297.70001"
   y1="310.29999"
   x2="289.39999"
   y2="335.60001"
   id="line9" />&#10;	<line
   class="st0"
   x1="305.89999"
   y1="335.60001"
   x2="289.39999"
   y2="335.60001"
   id="line10" />&#10;	<line
   class="st0"
   x1="297.70001"
   y1="310.29999"
   x2="305.89999"
   y2="335.60001"
   id="line11" />&#10;</g><g
         id="g14">&#10;	<line
   class="st0"
   x1="297.70001"
   y1="509.10001"
   x2="289.39999"
   y2="534.29999"
   id="line12" />&#10;	<line
   class="st0"
   x1="305.89999"
   y1="534.29999"
   x2="289.39999"
   y2="534.29999"
   id="line13" />&#10;	<line
   class="st0"
   x1="297.70001"
   y1="509.10001"
   x2="305.89999"
   y2="534.29999"
   id="line14" />&#10;</g><g
         id="g18">&#10;	<line
   class="st0"
   x1="297.79999"
   y1="458.79999"
   x2="306.10001"
   y2="433.60001"
   id="line16" />&#10;	<line
   class="st0"
   x1="289.70001"
   y1="433.60001"
   x2="306.10001"
   y2="433.60001"
   id="line17" />&#10;	<line
   class="st0"
   x1="297.79999"
   y1="458.79999"
   x2="289.70001"
   y2="433.60001"
   id="line18" />&#10;</g><g
         id="g21">&#10;	<line
   class="st0"
   x1="272.39999"
   y1="433.5"
   x2="297.60001"
   y2="441.79999"
   id="line19" />&#10;	<line
   class="st0"
   x1="297.60001"
   y1="425.29999"
   x2="297.60001"
   y2="441.79999"
   id="line20" />&#10;	<line
   class="st0"
   x1="272.39999"
   y1="433.5"
   x2="297.60001"
   y2="425.29999"
   id="line21" />&#10;</g><g
         id="g24">&#10;	<line
   class="st0"
   x1="202.5"
   y1="433.5"
   x2="227.7"
   y2="441.79999"
   id="line22" />&#10;	<line
   class="st0"
   x1="227.7"
   y1="425.29999"
   x2="227.7"
   y2="441.79999"
   id="line23" />&#10;	<line
   class="st0"
   x1="202.5"
   y1="433.5"
   x2="227.7"
   y2="425.29999"
   id="line24" />&#10;</g><line
         class="st0"
         x1="297.89999"
         y1="433.60001"
         x2="227.7"
         y2="433.60001"
         id="line25" /></g><g
       inkscape:label="Hershey Text"
       style="fill:none;stroke:#000000;stroke-linecap:round;stroke-linejoin:round"
       transform="matrix(0.351662,0,0,0.351662,-6.6391901,26.677004)"
       id="g10"><g
         transform="translate(175.933,218.123)"
         id="g9"><path
           d="M 135,15.8 V 649 h 224 l 57,-16 41,-31 31,-41 13,-63 -3,-57 -26,-63 -47,-38 -66,-25 -75,-3 H 132"
           style="stroke-width:0.648in"
           transform="scale(0.012,-0.012)"
           id="path2" /><path
           d="M 466,31.5 H 132 V 356 H 410 132 v 287 h 322"
           style="stroke-width:0.648in"
           transform="matrix(0.012,0,0,-0.012,6.96,0)"
           id="path3" /><path
           d="M 126,22.1 V 649 h 22 L 523,22.1 V 652"
           style="stroke-width:0.648in"
           transform="matrix(0.012,0,0,-0.012,13.428,0)"
           id="path4" /><path
           d="M 132,31.5 V 646 h 177 l 72,-19 54,-29 37,-37 45,-73 15,-82 v -50 l -3,-66 -9,-76 -25,-53 -45,-66.5 -69,-40.9 -66,-19 -50,-3.1 H 135"
           style="stroke-width:0.648in"
           transform="matrix(0.012,0,0,-0.012,21.288,0)"
           id="path5" /><path
           d="m 334,22.1 82,12.5 82,53.6 56,84.8 29,111 v 103 l -16,85 -31,70 -51,66 -69,41 -70,13 -59,-10 -67,-25 -62,-54 -48,-91 -15.5,-72 -3.1,-108 12.6,-82 31,-75 45,-59.9 50,-41 54,-18.9 50,-3.1"
           style="stroke-width:0.648in"
           transform="matrix(0.012,0,0,-0.012,28.812,0)"
           id="path6" /><path
           d="M 66.1,655 214,18.9 227,22.1 391,652 h 12 L 570,18.9 h 13 L 724,655"
           style="stroke-width:0.648in"
           transform="matrix(0.012,0,0,-0.012,36.936,0)"
           id="path7" /><path
           d="M 126,22.1 V 649 h 22 L 523,22.1 V 652"
           style="stroke-width:0.648in"
           transform="matrix(0.012,0,0,-0.012,46.428,0)"
           id="path8" /></g></g><g
       inkscape:label="Hershey Text"
       style="fill:none;stroke:#000000;stroke-linecap:round;stroke-linejoin:round"
       id="g20"
       transform="translate(2.9101904,34.922285)"><g
         transform="translate(90.9198,68.4339)"
         id="g19"><path
           d="M 132,18.9 V 346 H 413 132 v 297 h 322"
           style="stroke-width:0.648in"
           transform="scale(0.00421995,-0.00421995)"
           id="path10" /><path
           d="m 334,22.1 82,12.5 82,53.6 56,84.8 29,111 v 103 l -16,85 -31,70 -51,66 -69,41 -70,13 -59,-10 -67,-25 -62,-54 -48,-91 -15.5,-72 -3.1,-108 12.6,-82 31,-75 45,-59.9 50,-41 54,-18.9 50,-3.1"
           style="stroke-width:0.648in"
           transform="matrix(0.00421995,0,0,-0.00421995,2.11419,0)"
           id="path11" /><path
           d="M 129,18.9 V 649 h 211 l 51,-16 56,-28 41,-63 v -54 l -9,-60 -38,-53 -47,-29 -76,-18 H 132 312 L 495,18.9"
           style="stroke-width:0.648in"
           transform="matrix(0.00421995,0,0,-0.00421995,4.9711,0)"
           id="path12" /><path
           d="M 66.1,655 214,18.9 227,22.1 391,652 h 12 L 570,18.9 h 13 L 724,655"
           style="stroke-width:0.648in"
           transform="matrix(0.00421995,0,0,-0.00421995,7.41867,0)"
           id="path13" /><path
           d="M 41,15.8 277,662 416,255 H 132 416 L 501,15.8"
           style="stroke-width:0.648in"
           transform="matrix(0.00421995,0,0,-0.00421995,10.7567,0)"
           id="path14" /><path
           d="M 129,18.9 V 649 h 211 l 51,-16 56,-28 41,-63 v -54 l -9,-60 -38,-53 -47,-29 -76,-18 H 132 312 L 495,18.9"
           style="stroke-width:0.648in"
           transform="matrix(0.00421995,0,0,-0.00421995,13.0692,0)"
           id="path15" /><path
           d="M 132,31.5 V 646 h 177 l 72,-19 54,-29 37,-37 45,-73 15,-82 v -50 l -3,-66 -9,-76 -25,-53 -45,-66.5 -69,-40.9 -66,-19 -50,-3.1 H 135"
           style="stroke-width:0.648in"
           transform="matrix(0.00421995,0,0,-0.00421995,15.5168,0)"
           id="path16" /><path
           d="M 59.9,97.6 101,63 l 44,-25.2 50,-18.9 48,-3.1 72,18.8 50,41 41,59.4 16,70 -9,82 -35,63 -72,41 -73,6 -53,-13 -54,-28 -6,9 19,265 h 258"
           style="stroke-width:0.648in"
           transform="matrix(0.00421995,0,0,-0.00421995,19.7578,0)"
           id="path17" /><path
           d="m 246,18.9 60,12.6 63,63 28,66.5 13,75 6,104 -6,98 -23,94 -31,60 -50,38 -45,16 -37,-3 L 164,608 123,551 94.5,460 85,365 81.9,271 94.5,183 126,94.5 164,53.6 202,22.1 246,18.9"
           style="stroke-width:0.648in"
           transform="matrix(0.00421995,0,0,-0.00421995,21.872,0)"
           id="path18" /></g></g><g
       inkscape:label="Hershey Text"
       style="fill:none;stroke:#000000;stroke-linecap:round;stroke-linejoin:round"
       id="g26"
       transform="translate(7.5664952,22.408466)"><g
         transform="translate(129.601,81.1832)"
         id="g25"><path
           d="M 135,15.8 V 649 h 224 l 57,-16 41,-31 31,-41 13,-63 -3,-57 -26,-63 -47,-38 -66,-25 -75,-3 H 132"
           style="stroke-width:0.648in"
           transform="scale(0.00421995,-0.00421995)"
           id="path20" /><path
           d="M 466,31.5 H 132 V 356 H 410 132 v 287 h 322"
           style="stroke-width:0.648in"
           transform="matrix(0.00421995,0,0,-0.00421995,2.44757,0)"
           id="path21" /><path
           d="M 126,22.1 V 649 h 22 L 523,22.1 V 652"
           style="stroke-width:0.648in"
           transform="matrix(0.00421995,0,0,-0.00421995,4.72212,0)"
           id="path22" /><path
           d="M 135,655 V 217 l 10,-56 28,-60 38,-41.1 57,-31.5 53,-12.6 66,9.4 67,34.7 47,57.1 22,50 6,69 v 416"
           style="stroke-width:0.648in"
           transform="matrix(0.00421995,0,0,-0.00421995,7.48619,0)"
           id="path23" /><path
           d="M 135,15.8 V 649 h 224 l 57,-16 41,-31 31,-41 13,-63 -3,-57 -26,-63 -47,-38 -66,-25 -75,-3 H 132"
           style="stroke-width:0.648in"
           transform="matrix(0.00421995,0,0,-0.00421995,10.2798,0)"
           id="path24" /></g></g><g
       inkscape:label="Hershey Text"
       style="fill:none;stroke:#000000;stroke-linecap:round;stroke-linejoin:round"
       id="g32"
       transform="translate(-57.330752,-10.476686)"><g
         transform="translate(170.865,161.235)"
         id="g31"><path
           d="M 274,22.1 V 649 H 56.7 495"
           style="stroke-width:0.648in"
           transform="scale(0.00421995,-0.00421995)"
           id="path26" /><path
           d="M 135,655 V 217 l 10,-56 28,-60 38,-41.1 57,-31.5 53,-12.6 66,9.4 67,34.7 47,57.1 22,50 6,69 v 416"
           style="stroke-width:0.648in"
           transform="matrix(0.00421995,0,0,-0.00421995,2.31253,0)"
           id="path27" /><path
           d="M 129,18.9 V 649 h 211 l 51,-16 56,-28 41,-63 v -54 l -9,-60 -38,-53 -47,-29 -76,-18 H 132 312 L 495,18.9"
           style="stroke-width:0.648in"
           transform="matrix(0.00421995,0,0,-0.00421995,5.10614,0)"
           id="path28" /><path
           d="M 274,22.1 V 649 H 56.7 495"
           style="stroke-width:0.648in"
           transform="matrix(0.00421995,0,0,-0.00421995,7.55371,0)"
           id="path29" /><path
           d="M 132,655 V 31.5 h 315"
           style="stroke-width:0.648in"
           transform="matrix(0.00421995,0,0,-0.00421995,9.86624,0)"
           id="path30" /><path
           d="M 466,31.5 H 132 V 356 H 410 132 v 287 h 322"
           style="stroke-width:0.648in"
           transform="matrix(0.00421995,0,0,-0.00421995,11.9382,0)"
           id="path31" /></g></g><g
       inkscape:label="Hershey Text"
       style="fill:none;stroke:#000000;stroke-linecap:round;stroke-linejoin:round"
       id="g40"
       transform="translate(-28.810885,66.061323)"><g
         transform="translate(163.311,84.7141)"
         id="g39"><path
           d="M 129,18.9 V 649 h 211 l 51,-16 56,-28 41,-63 v -54 l -9,-60 -38,-53 -47,-29 -76,-18 H 132 312 L 495,18.9"
           style="stroke-width:0.648in"
           transform="scale(0.00421995,-0.00421995)"
           id="path32" /><path
           d="M 132,18.9 V 652"
           style="stroke-width:0.648in"
           transform="matrix(0.00421995,0,0,-0.00421995,2.44757,0)"
           id="path33" /><path
           d="M 346,315 H 520 V 81.9 L 479,53.6 391,22.1 328,18.9 265,31.5 208,63 l -66,76 -44.4,94 -9.4,110 12.8,107 41,95 66,72 66,32 76,13 82,-13 50,-28 35,-29"
           style="stroke-width:0.648in"
           transform="matrix(0.00421995,0,0,-0.00421995,3.57852,0)"
           id="path34" /><path
           d="M 132,22.1 V 652 359 H 532 V 649 22.1"
           style="stroke-width:0.648in"
           transform="matrix(0.00421995,0,0,-0.00421995,6.21177,0)"
           id="path35" /><path
           d="M 274,22.1 V 649 H 56.7 495"
           style="stroke-width:0.648in"
           transform="matrix(0.00421995,0,0,-0.00421995,9.03069,0)"
           id="path36" /><path
           d="m 265,598 -104,-3 107,41 V 31.5 H 110 422"
           style="stroke-width:0.648in"
           transform="matrix(0.00421995,0,0,-0.00421995,12.9384,0)"
           id="path37" /><path
           d="m 296,321 63,51 38,56 9,54 -3,57 -41,66 -63,34 -50,4 -76,-22 -50,-51 -13,-57 16,-78 50,-48 89,-47 81,-44 54,-41 25,-57 -6,-69 -19,-50.2 -60,-47.3 -75,-15.7 -60,9.4 -63,28.4 -47.5,50.4 -15.7,54 6.2,78 50,70 41,28 54,25"
           style="stroke-width:0.648in"
           transform="matrix(0.00421995,0,0,-0.00421995,15.0652,0)"
           id="path38" /><path
           d="m 246,18.9 60,12.6 63,63 28,66.5 13,75 6,104 -6,98 -23,94 -31,60 -50,38 -45,16 -37,-3 L 164,608 123,551 94.5,460 85,365 81.9,271 94.5,183 126,94.5 164,53.6 202,22.1 246,18.9"
           style="stroke-width:0.648in"
           transform="matrix(0.00421995,0,0,-0.00421995,17.1794,0)"
           id="path39" /></g></g><g
       inkscape:label="Hershey Text"
       style="fill:none;stroke:#000000;stroke-linecap:round;stroke-linejoin:round"
       id="g47"
       transform="translate(-21.535409,-21.535409)"><g
         transform="translate(117.381,220.722)"
         id="g46"><path
           d="M 129,28.4 V 646 h 183 l 53,-3 54,-22 44,-41 13,-48 V 476 L 454,425 406,391 365,372 309,362 H 135 312 l 53,-9 63,-16 51,-35 28,-31 10,-44 V 164 L 491,104 447,66.1 369,34.6 312,28.4 H 135"
           style="stroke-width:0.648in"
           transform="scale(0.00421995,-0.00421995)"
           id="path40" /><path
           d="M 41,15.8 277,662 416,255 H 132 416 L 501,15.8"
           style="stroke-width:0.648in"
           transform="matrix(0.00421995,0,0,-0.00421995,2.54041,0)"
           id="path41" /><path
           d="m 520,97.6 -66,-50.4 -89,-31.4 -88,12.6 -82,44 -63,75.6 -31,79 -9.6,119 9.6,111 41,91 63,69 72,35 82,6 73,-15 50,-32 16,-19"
           style="stroke-width:0.648in"
           transform="matrix(0.00421995,0,0,-0.00421995,4.85294,0)"
           id="path42" /><path
           d="M 132,18.9 V 655 M 491,649 142,255 M 293,425 529,18.9"
           style="stroke-width:0.648in"
           transform="matrix(0.00421995,0,0,-0.00421995,7.33849,0)"
           id="path43" /><path
           d="m 265,598 -104,-3 107,41 V 31.5 H 110 422"
           style="stroke-width:0.648in"
           transform="matrix(0.00421995,0,0,-0.00421995,11.3939,0)"
           id="path44" /><path
           d="m 246,18.9 60,12.6 63,63 28,66.5 13,75 6,104 -6,98 -23,94 -31,60 -50,38 -45,16 -37,-3 L 164,608 123,551 94.5,460 85,365 81.9,271 94.5,183 126,94.5 164,53.6 202,22.1 246,18.9"
           style="stroke-width:0.648in"
           transform="matrix(0.00421995,0,0,-0.00421995,13.5207,0)"
           id="path45" /><path
           d="m 246,18.9 60,12.6 63,63 28,66.5 13,75 6,104 -6,98 -23,94 -31,60 -50,38 -45,16 -37,-3 L 164,608 123,551 94.5,460 85,365 81.9,271 94.5,183 126,94.5 164,53.6 202,22.1 246,18.9"
           style="stroke-width:0.648in"
           transform="matrix(0.00421995,0,0,-0.00421995,15.6349,0)"
           id="path46" /></g></g><g
       inkscape:label="Hershey Text"
       style="fill:none;stroke:#000000;stroke-linecap:round;stroke-linejoin:round"
       id="g53"
       transform="translate(34.631266,1.1640762)"><g
         transform="translate(19.2231,153.415)"
         id="g52"><path
           d="M 132,655 V 31.5 h 315"
           style="stroke-width:0.648in"
           transform="scale(0.00421995,-0.00421995)"
           id="path47" /><path
           d="M 466,31.5 H 132 V 356 H 410 132 v 287 h 322"
           style="stroke-width:0.648in"
           transform="matrix(0.00421995,0,0,-0.00421995,2.072,0)"
           id="path48" /><path
           d="M 132,18.9 V 346 H 413 132 v 297 h 322"
           style="stroke-width:0.648in"
           transform="matrix(0.00421995,0,0,-0.00421995,4.34655,0)"
           id="path49" /><path
           d="M 274,22.1 V 649 H 56.7 495"
           style="stroke-width:0.648in"
           transform="matrix(0.00421995,0,0,-0.00421995,6.46074,0)"
           id="path50" /><path
           d="m 88.2,75.6 34.8,-34.7 57,-18.8 59,-6.3 63,31.4 60,59.8 35,91 16,111 v 104 l -22,97 -38,76 -60,44 -69,13 -73,-26 -44,-44 -25.1,-56 -6.3,-57 3.2,-63 34.2,-66 63,-41 76,-10 82,35 50,47 32,41"
           style="stroke-width:0.648in"
           transform="matrix(0.00421995,0,0,-0.00421995,10.3684,0)"
           id="path51" /><path
           d="m 246,18.9 60,12.6 63,63 28,66.5 13,75 6,104 -6,98 -23,94 -31,60 -50,38 -45,16 -37,-3 L 164,608 123,551 94.5,460 85,365 81.9,271 94.5,183 126,94.5 164,53.6 202,22.1 246,18.9"
           style="stroke-width:0.648in"
           transform="matrix(0.00421995,0,0,-0.00421995,12.4826,0)"
           id="path52" /></g></g></g><style
     type="text/css"
     id="style1">&#10;	.st0{fill:none;stroke:#000000;stroke-miterlimit:10;}&#10;	.st1{font-family:'MyriadPro-Regular';}&#10;	.st2{font-size:12px;}&#10;</style></svg>
