<?xml version="1.0" encoding="UTF-8" standalone="no"?>
<!-- Created with Inkscape (http://www.inkscape.org/) -->

<svg
   width="210mm"
   height="297mm"
   viewBox="0 0 210 297"
   version="1.1"
   id="svg1"
   xml:space="preserve"
   sodipodi:docname="left.svg"
   inkscape:version="1.3 (0e150ed, 2023-07-21)"
   xmlns:inkscape="http://www.inkscape.org/namespaces/inkscape"
   xmlns:sodipodi="http://sodipodi.sourceforge.net/DTD/sodipodi-0.dtd"
   xmlns="http://www.w3.org/2000/svg"
   xmlns:svg="http://www.w3.org/2000/svg"><sodipodi:namedview
     id="namedview1"
     pagecolor="#ffffff"
     bordercolor="#666666"
     borderopacity="1.0"
     inkscape:showpageshadow="2"
     inkscape:pageopacity="0.0"
     inkscape:pagecheckerboard="0"
     inkscape:deskcolor="#d1d1d1"
     inkscape:document-units="mm"
     inkscape:zoom="0.90916158"
     inkscape:cx="371.22114"
     inkscape:cy="567.55588"
     inkscape:window-width="1640"
     inkscape:window-height="945"
     inkscape:window-x="0"
     inkscape:window-y="25"
     inkscape:window-maximized="0"
     inkscape:current-layer="layer1" /><defs
     id="defs1" /><g
     inkscape:label="Layer 1"
     inkscape:groupmode="layer"
     id="layer1"><g
       id="g24"
       transform="matrix(0.35166242,0,0,0.35166242,0.34526703,0.48528957)">&#10;	<line
   class="st0"
   x1="202.5"
   y1="433.5"
   x2="227.7"
   y2="441.79999"
   id="line22" />&#10;	<line
   class="st0"
   x1="227.7"
   y1="425.29999"
   x2="227.7"
   y2="441.79999"
   id="line23" />&#10;	<line
   class="st0"
   x1="202.5"
   y1="433.5"
   x2="227.7"
   y2="425.29999"
   id="line24" />&#10;</g><line
       class="st0"
       x1="105.1055"
       y1="152.96611"
       x2="80.4188"
       y2="152.96611"
       id="line25"
       style="stroke-width:0.351662" /><g
       inkscape:label="Hershey Text"
       style="fill:none;stroke:#000000;stroke-linecap:round;stroke-linejoin:round"
       id="g53"
       transform="translate(34.631266,1.1640762)"><g
         transform="translate(19.2231,153.415)"
         id="g52"><path
           d="M 132,655 V 31.5 h 315"
           style="stroke-width:0.648in"
           transform="scale(0.00421995,-0.00421995)"
           id="path47" /><path
           d="M 466,31.5 H 132 V 356 H 410 132 v 287 h 322"
           style="stroke-width:0.648in"
           transform="matrix(0.00421995,0,0,-0.00421995,2.072,0)"
           id="path48" /><path
           d="M 132,18.9 V 346 H 413 132 v 297 h 322"
           style="stroke-width:0.648in"
           transform="matrix(0.00421995,0,0,-0.00421995,4.34655,0)"
           id="path49" /><path
           d="M 274,22.1 V 649 H 56.7 495"
           style="stroke-width:0.648in"
           transform="matrix(0.00421995,0,0,-0.00421995,6.46074,0)"
           id="path50" /><path
           d="m 88.2,75.6 34.8,-34.7 57,-18.8 59,-6.3 63,31.4 60,59.8 35,91 16,111 v 104 l -22,97 -38,76 -60,44 -69,13 -73,-26 -44,-44 -25.1,-56 -6.3,-57 3.2,-63 34.2,-66 63,-41 76,-10 82,35 50,47 32,41"
           style="stroke-width:0.648in"
           transform="matrix(0.00421995,0,0,-0.00421995,10.3684,0)"
           id="path51" /><path
           d="m 246,18.9 60,12.6 63,63 28,66.5 13,75 6,104 -6,98 -23,94 -31,60 -50,38 -45,16 -37,-3 L 164,608 123,551 94.5,460 85,365 81.9,271 94.5,183 126,94.5 164,53.6 202,22.1 246,18.9"
           style="stroke-width:0.648in"
           transform="matrix(0.00421995,0,0,-0.00421995,12.4826,0)"
           id="path52" /></g></g></g><style
     type="text/css"
     id="style1">&#10;	.st0{fill:none;stroke:#000000;stroke-miterlimit:10;}&#10;	.st1{font-family:'MyriadPro-Regular';}&#10;	.st2{font-size:12px;}&#10;</style></svg>
