<?xml version="1.0" encoding="UTF-8" standalone="no"?>
<!-- Created with Inkscape (http://www.inkscape.org/) -->

<svg
   width="210mm"
   height="297mm"
   viewBox="0 0 210 297"
   version="1.1"
   id="svg1"
   xml:space="preserve"
   sodipodi:docname="penuppendown.svg"
   inkscape:version="1.3 (0e150ed, 2023-07-21)"
   xmlns:inkscape="http://www.inkscape.org/namespaces/inkscape"
   xmlns:sodipodi="http://sodipodi.sourceforge.net/DTD/sodipodi-0.dtd"
   xmlns="http://www.w3.org/2000/svg"
   xmlns:svg="http://www.w3.org/2000/svg"><sodipodi:namedview
     id="namedview1"
     pagecolor="#ffffff"
     bordercolor="#666666"
     borderopacity="1.0"
     inkscape:showpageshadow="2"
     inkscape:pageopacity="0.0"
     inkscape:pagecheckerboard="0"
     inkscape:deskcolor="#d1d1d1"
     inkscape:document-units="mm"
     inkscape:zoom="0.90916158"
     inkscape:cx="371.22114"
     inkscape:cy="567.55588"
     inkscape:window-width="1640"
     inkscape:window-height="945"
     inkscape:window-x="0"
     inkscape:window-y="25"
     inkscape:window-maximized="0"
     inkscape:current-layer="layer1" /><defs
     id="defs1" /><g
     inkscape:label="Layer 1"
     inkscape:groupmode="layer"
     id="layer1"><g
       inkscape:label="Hershey Text"
       style="fill:none;stroke:#000000;stroke-linecap:round;stroke-linejoin:round"
       transform="matrix(0.351662,0,0,0.351662,-6.6391901,26.677004)"
       id="g10"><g
         transform="translate(175.933,218.123)"
         id="g9"><path
           d="M 135,15.8 V 649 h 224 l 57,-16 41,-31 31,-41 13,-63 -3,-57 -26,-63 -47,-38 -66,-25 -75,-3 H 132"
           style="stroke-width:0.648in"
           transform="scale(0.012,-0.012)"
           id="path2" /><path
           d="M 466,31.5 H 132 V 356 H 410 132 v 287 h 322"
           style="stroke-width:0.648in"
           transform="matrix(0.012,0,0,-0.012,6.96,0)"
           id="path3" /><path
           d="M 126,22.1 V 649 h 22 L 523,22.1 V 652"
           style="stroke-width:0.648in"
           transform="matrix(0.012,0,0,-0.012,13.428,0)"
           id="path4" /><path
           d="M 132,31.5 V 646 h 177 l 72,-19 54,-29 37,-37 45,-73 15,-82 v -50 l -3,-66 -9,-76 -25,-53 -45,-66.5 -69,-40.9 -66,-19 -50,-3.1 H 135"
           style="stroke-width:0.648in"
           transform="matrix(0.012,0,0,-0.012,21.288,0)"
           id="path5" /><path
           d="m 334,22.1 82,12.5 82,53.6 56,84.8 29,111 v 103 l -16,85 -31,70 -51,66 -69,41 -70,13 -59,-10 -67,-25 -62,-54 -48,-91 -15.5,-72 -3.1,-108 12.6,-82 31,-75 45,-59.9 50,-41 54,-18.9 50,-3.1"
           style="stroke-width:0.648in"
           transform="matrix(0.012,0,0,-0.012,28.812,0)"
           id="path6" /><path
           d="M 66.1,655 214,18.9 227,22.1 391,652 h 12 L 570,18.9 h 13 L 724,655"
           style="stroke-width:0.648in"
           transform="matrix(0.012,0,0,-0.012,36.936,0)"
           id="path7" /><path
           d="M 126,22.1 V 649 h 22 L 523,22.1 V 652"
           style="stroke-width:0.648in"
           transform="matrix(0.012,0,0,-0.012,46.428,0)"
           id="path8" /></g></g><g
       inkscape:label="Hershey Text"
       style="fill:none;stroke:#000000;stroke-linecap:round;stroke-linejoin:round"
       id="g26"
       transform="translate(7.5664952,22.408466)"><g
         transform="translate(129.601,81.1832)"
         id="g25"><path
           d="M 135,15.8 V 649 h 224 l 57,-16 41,-31 31,-41 13,-63 -3,-57 -26,-63 -47,-38 -66,-25 -75,-3 H 132"
           style="stroke-width:0.648in"
           transform="scale(0.00421995,-0.00421995)"
           id="path20" /><path
           d="M 466,31.5 H 132 V 356 H 410 132 v 287 h 322"
           style="stroke-width:0.648in"
           transform="matrix(0.00421995,0,0,-0.00421995,2.44757,0)"
           id="path21" /><path
           d="M 126,22.1 V 649 h 22 L 523,22.1 V 652"
           style="stroke-width:0.648in"
           transform="matrix(0.00421995,0,0,-0.00421995,4.72212,0)"
           id="path22" /><path
           d="M 135,655 V 217 l 10,-56 28,-60 38,-41.1 57,-31.5 53,-12.6 66,9.4 67,34.7 47,57.1 22,50 6,69 v 416"
           style="stroke-width:0.648in"
           transform="matrix(0.00421995,0,0,-0.00421995,7.48619,0)"
           id="path23" /><path
           d="M 135,15.8 V 649 h 224 l 57,-16 41,-31 31,-41 13,-63 -3,-57 -26,-63 -47,-38 -66,-25 -75,-3 H 132"
           style="stroke-width:0.648in"
           transform="matrix(0.00421995,0,0,-0.00421995,10.2798,0)"
           id="path24" /></g></g></g><style
     type="text/css"
     id="style1">&#10;	.st0{fill:none;stroke:#000000;stroke-miterlimit:10;}&#10;	.st1{font-family:'MyriadPro-Regular';}&#10;	.st2{font-size:12px;}&#10;</style></svg>
