<?xml version="1.0" encoding="UTF-8" standalone="no"?>
<!-- Created with Inkscape (http://www.inkscape.org/) -->

<svg
   width="210mm"
   height="297mm"
   viewBox="0 0 210 297"
   version="1.1"
   id="svg1"
   xml:space="preserve"
   sodipodi:docname="right.svg"
   inkscape:version="1.3 (0e150ed, 2023-07-21)"
   xmlns:inkscape="http://www.inkscape.org/namespaces/inkscape"
   xmlns:sodipodi="http://sodipodi.sourceforge.net/DTD/sodipodi-0.dtd"
   xmlns="http://www.w3.org/2000/svg"
   xmlns:svg="http://www.w3.org/2000/svg"><sodipodi:namedview
     id="namedview1"
     pagecolor="#ffffff"
     bordercolor="#666666"
     borderopacity="1.0"
     inkscape:showpageshadow="2"
     inkscape:pageopacity="0.0"
     inkscape:pagecheckerboard="0"
     inkscape:deskcolor="#d1d1d1"
     inkscape:document-units="mm"
     inkscape:zoom="0.90916158"
     inkscape:cx="371.22114"
     inkscape:cy="567.55588"
     inkscape:window-width="1640"
     inkscape:window-height="945"
     inkscape:window-x="0"
     inkscape:window-y="25"
     inkscape:window-maximized="0"
     inkscape:current-layer="layer1" /><defs
     id="defs1" /><g
     inkscape:label="Layer 1"
     inkscape:groupmode="layer"
     id="layer1"><g
       id="g18"
       transform="matrix(0.35166242,0,0,0.35166242,0.34526703,0.48528957)"
       style="display:inline">&#10;	<line
   class="st0"
   x1="297.79999"
   y1="458.79999"
   x2="306.10001"
   y2="433.60001"
   id="line16" />&#10;	<line
   class="st0"
   x1="289.70001"
   y1="433.60001"
   x2="306.10001"
   y2="433.60001"
   id="line17" />&#10;	<line
   class="st0"
   x1="297.79999"
   y1="458.79999"
   x2="289.70001"
   y2="433.60001"
   id="line18" />&#10;</g><g
       inkscape:label="Hershey Text"
       style="fill:none;stroke:#000000;stroke-linecap:round;stroke-linejoin:round"
       id="g40"
       transform="translate(-28.810885,66.061323)"><g
         transform="translate(163.311,84.7141)"
         id="g39"><path
           d="M 129,18.9 V 649 h 211 l 51,-16 56,-28 41,-63 v -54 l -9,-60 -38,-53 -47,-29 -76,-18 H 132 312 L 495,18.9"
           style="stroke-width:0.648in"
           transform="scale(0.00421995,-0.00421995)"
           id="path32" /><path
           d="M 132,18.9 V 652"
           style="stroke-width:0.648in"
           transform="matrix(0.00421995,0,0,-0.00421995,2.44757,0)"
           id="path33" /><path
           d="M 346,315 H 520 V 81.9 L 479,53.6 391,22.1 328,18.9 265,31.5 208,63 l -66,76 -44.4,94 -9.4,110 12.8,107 41,95 66,72 66,32 76,13 82,-13 50,-28 35,-29"
           style="stroke-width:0.648in"
           transform="matrix(0.00421995,0,0,-0.00421995,3.57852,0)"
           id="path34" /><path
           d="M 132,22.1 V 652 359 H 532 V 649 22.1"
           style="stroke-width:0.648in"
           transform="matrix(0.00421995,0,0,-0.00421995,6.21177,0)"
           id="path35" /><path
           d="M 274,22.1 V 649 H 56.7 495"
           style="stroke-width:0.648in"
           transform="matrix(0.00421995,0,0,-0.00421995,9.03069,0)"
           id="path36" /><path
           d="m 265,598 -104,-3 107,41 V 31.5 H 110 422"
           style="stroke-width:0.648in"
           transform="matrix(0.00421995,0,0,-0.00421995,12.9384,0)"
           id="path37" /><path
           d="m 296,321 63,51 38,56 9,54 -3,57 -41,66 -63,34 -50,4 -76,-22 -50,-51 -13,-57 16,-78 50,-48 89,-47 81,-44 54,-41 25,-57 -6,-69 -19,-50.2 -60,-47.3 -75,-15.7 -60,9.4 -63,28.4 -47.5,50.4 -15.7,54 6.2,78 50,70 41,28 54,25"
           style="stroke-width:0.648in"
           transform="matrix(0.00421995,0,0,-0.00421995,15.0652,0)"
           id="path38" /><path
           d="m 246,18.9 60,12.6 63,63 28,66.5 13,75 6,104 -6,98 -23,94 -31,60 -50,38 -45,16 -37,-3 L 164,608 123,551 94.5,460 85,365 81.9,271 94.5,183 126,94.5 164,53.6 202,22.1 246,18.9"
           style="stroke-width:0.648in"
           transform="matrix(0.00421995,0,0,-0.00421995,17.1794,0)"
           id="path39" /></g></g></g><style
     type="text/css"
     id="style1">&#10;	.st0{fill:none;stroke:#000000;stroke-miterlimit:10;}&#10;	.st1{font-family:'MyriadPro-Regular';}&#10;	.st2{font-size:12px;}&#10;</style></svg>
